<?xml version="1.0"?>
<svg width="1440" height="90" xmlns="http://www.w3.org/2000/svg" xmlns:svg="http://www.w3.org/2000/svg" transform="rotate(180deg)" version="1.1">

 <g class="layer">
  <title>Layer 1</title>
  <path d="m0,90l48,-8.3c48,-8.7 144,-24.7 240,-30c96,-4.7 192,1.3 288,6.6c96,4.7 192,8.7 288,8.4c96,0.3 192,-3.7 288,-11.7c96,-8 192,-22 288,-26.7c96,-5.3 192,-1.3 288,6.7c96,8 192,22 288,21.7c96,0.3 192,-13.7 288,-10c96,3.3 192,23.3 288,18.3c96,-5 192,-35 288,-50c96,-15 192,-15 288,-11.7c96,3.7 192,9.7 288,25c96,14.7 192,38.7 288,46.7c96,8 192,2 288,-6.7c96,-8.3 192,-18.3 288,-20c96,-1.3 192,4.7 288,13.4c96,8.3 192,18.3 288,23.3c96,5 192,5 288,3.3c96,-1.3 192,-5.3 288,-5c96,-0.3 192,3.7 288,3.4c96,0.3 192,-3.7 288,-15c96,-11.7 192,-31.7 288,-38.4c96,-6.3 192,-0.3 288,5c96,4.7 192,8.7 240,10l48,1.7l0,50l-48,0c-48,0 -144,0 -240,0c-96,0 -192,0 -288,0c-96,0 -192,0 -288,0c-96,0 -192,0 -288,0c-96,0 -192,0 -288,0c-96,0 -192,0 -288,0c-96,0 -192,0 -288,0c-96,0 -192,0 -288,0c-96,0 -192,0 -288,0c-96,0 -192,0 -288,0c-96,0 -192,0 -288,0c-96,0 -192,0 -288,0c-96,0 -192,0 -288,0c-96,0 -192,0 -288,0c-96,0 -192,0 -288,0c-96,0 -192,0 -288,0c-96,0 -192,0 -288,0c-96,0 -192,0 -288,0c-96,0 -192,0 -288,0c-96,0 -192,0 -288,0c-96,0 -192,0 -288,0c-96,0 -192,0 -288,0c-96,0 -192,0 -288,0c-96,0 -192,0 -240,0l-48,0l0,-10z" fill="#faf0fa" id="svg_1"/>
 </g>
</svg>